Coordinates
version=1
nRows=9
nColumns=36
inDegrees=yes

Units are S.I. units (second, meters, Newtons, ...)
If the header above contains a line with 'inDegrees', this indicates whether rotational values are in degrees (yes) or radians (no).

endheader
time	pelvis_tilt	pelvis_list	pelvis_rotation	pelvis_tx	pelvis_ty	pelvis_tz	hip_flexion_r	hip_adduction_r	hip_rotation_r	knee_angle_r	knee_angle_r_beta	ankle_angle_r	subtalar_angle_r	mtp_angle_r	hip_flexion_l	hip_adduction_l	hip_rotation_l	knee_angle_l	knee_angle_l_beta	ankle_angle_l	subtalar_angle_l	mtp_angle_l	lumbar_extension	lumbar_bending	lumbar_rotation	arm_flex_r	arm_add_r	arm_rot_r	elbow_flex_r	pro_sup_r	arm_flex_l	arm_add_l	arm_rot_l	elbow_flex_l	pro_sup_l
      2.10000000	      0.82262995	      5.88519299	     -4.71081566	      1.43790537	      0.97078363	      0.00213559	      9.06560137	      1.53234295	      3.46874477	     24.58692203	      0.42912274	     32.82843152	      2.40653695	     -7.49999987	     36.97852387	     -5.50973503	     -6.12257243	     48.82736898	      0.85219835	     19.47416744	      6.17361451	     -7.49999987	    -11.62770102	     -1.78903920	      4.76140828	     45.07402634	     -7.59144415	     68.53979282	    125.15023438	     95.45639627	     44.54069880	     -4.26818240	     66.85689961	    120.32444717	    102.63322798
      2.11666670	      0.99532377	      5.73634011	     -4.73375959	      1.43732630	      0.97113260	      0.00192907	      9.06945703	      1.67973009	      3.31140564	     24.89544682	      0.43450752	     33.20693956	      2.59939871	     -7.49999987	     36.65453155	     -5.71149781	     -6.15026747	     48.20125032	      0.84127052	     18.95558214	      6.01499865	     -7.49999987	    -12.19601132	     -1.66292796	      4.92713413	     45.27205593	     -7.58773438	     68.55558507	    124.82856374	     95.48733207	     44.76594578	     -4.28123882	     67.23148026	    119.73701271	    102.91269312
      2.13333330	      0.83140046	      5.48158868	     -4.65330844	      1.43740300	      0.96798736	      0.00145097	      9.41770713	      1.96822375	      3.26202262	     25.29609544	      0.44150015	     33.52033200	      2.66787061	     -7.49999987	     36.83562587	     -5.99596117	     -5.96544322	     47.74661634	      0.83333566	     18.60609868	      5.89350718	     -7.49999987	    -12.25951192	     -1.34825855	      5.10856095	     45.20857441	     -7.71010604	     68.37823463	    124.40362169	     96.09000865	     44.83064164	     -4.07453138	     67.36586990	    119.61126204	    103.30685439
      2.15000000	      0.77628918	      5.23619273	     -4.56272596	      1.43663576	      0.96590774	      0.00078200	      9.70325429	      2.22459187	      3.14040876	     25.77090949	      0.44978722	     33.86640819	      2.79594541	     -7.49999987	     37.02532719	     -6.22904424	     -5.73692860	     47.47293308	      0.82855899	     18.67487281	      5.82843235	     -7.49999987	    -12.52680747	     -1.12315694	      5.14173398	     45.32441384	     -7.80552074	     68.44889722	    124.27297198	     95.05453442	     45.19509397	     -3.88081684	     67.39125954	    119.45722902	    102.01186141
      2.16666670	      0.52820493	      5.02815501	     -4.41624469	      1.43277416	      0.96697715	     -0.00142721	     10.29370559	      2.40594761	      3.06126587	     26.30656948	      0.45913625	     33.92398117	      2.71968326	     -7.49999987	     37.43607043	     -6.32958072	     -5.52142260	     47.11077948	      0.82223822	     18.60138884	      5.75471140	     -7.49999987	    -12.80207216	     -0.82029257	      5.17928752	     45.80229626	     -8.20042319	     68.91902569	    124.22444775	     94.01604091	     45.47442655	     -3.78903760	     68.01871791	    119.13295671	    100.83880584
      2.18333330	      0.30922253	      4.83629622	     -4.17379641	      1.43193487	      0.96021241	     -0.00205335	     10.94996641	      2.55207383	      2.74932628	     26.99325580	      0.47112119	     34.26670083	      2.89660714	     -7.49999987	     37.92565984	     -6.40161377	     -5.14085771	     46.86613571	      0.81796838	     18.54166833	      5.57799897	     -7.49999987	    -13.10514182	     -0.59617305	      5.32414776	     46.42588132	     -8.58003682	     68.55710968	    124.38034043	     93.29545283	     46.53493497	     -3.25937068	     68.79726082	    119.29348791	    100.30956347
      2.20000000	     -0.23802711	      4.55547018	     -3.91827897	      1.42854183	      0.95889608	      0.00061367	     12.05516234	      2.90841987	      2.58210761	     27.82087604	      0.48556589	     34.59015980	      2.81958883	     -7.49999987	     38.87966916	     -6.64610978	     -4.75055558	     46.77961856	      0.81645837	     18.50015486	      5.44481527	     -7.49999987	    -13.19731739	     -0.20832861	      5.37153112	     47.04804557	     -8.53252595	     68.33440953	    124.07045778	     95.03366527	     47.67454848	     -2.92484532	     69.07773718	    119.19129242	    103.65871058
      2.21666670	     -0.41584618	      4.35127576	     -3.62691389	      1.42317395	      0.95652622	     -0.00208529	     12.81251702	      3.10589861	      2.33301558	     28.61428328	      0.49941346	     34.74971100	      2.73691585	     -7.49999987	     39.31876499	     -6.75594260	     -4.59196981	     46.29743874	      0.80804274	     18.45660577	      5.52807370	     -7.49999987	    -14.00323807	      0.20587612	      5.25202136	     47.50669057	     -8.66372710	     68.34966747	    123.90384817	     95.03488027	     48.40480837	     -2.86402001	     69.11147060	    119.08134528	    103.67490331
      2.23333330	     -1.07100812	      4.10472972	     -3.28615311	      1.42439113	      0.95749833	     -0.00249028	     14.20392014	      3.31170687	      1.92667477	     29.75082319	      0.51924982	     35.32277069	      2.85730577	     -7.49999987	     40.40073023	     -6.78611473	     -4.07462311	     46.15364387	      0.80553305	     18.28675483	      5.05386149	     -7.49999987	    -14.28457896	      0.67293369	      4.83978345	     48.22932336	     -8.60729118	     69.57342293	    123.72453176	     95.09119904	     49.72857923	     -2.95438519	     70.93133185	    118.76274328	    103.85346018
